<?xml version="1.0" encoding="UTF-8" standalone="no"?>
<!DOCTYPE svg PUBLIC "-//W3C//DTD SVG 1.1//EN" "http://www.w3.org/Graphics/SVG/1.1/DTD/svg11.dtd">
<svg xmlns="http://www.w3.org/2000/svg" version="1.1" viewBox="0.00 0.00 440.00 107.00">
<path fill="#ff0000" d="
  M 198.32 40.82
  Q 198.61 41.15 198.98 41.15
  Q 203.98 41.19 209.08 40.99
  C 212.32 40.85 214.89 37.70 216.66 35.09
  Q 216.85 34.80 217.14 34.66
  Q 217.28 34.60 217.42 34.57
  A 0.48 0.47 -86.1 0 1 217.95 35.18
  L 213.62 49.38
  A 1.31 1.31 0.0 0 1 212.37 50.29
  L 198.72 50.18
  A 0.60 0.59 -89.5 0 0 198.12 50.78
  L 198.11 71.59
  A 1.20 1.20 0.0 0 0 199.35 72.79
  Q 204.96 72.60 211.13 72.79
  C 218.09 73.00 222.34 67.91 224.79 62.04
  A 1.17 1.16 -77.7 0 1 225.91 61.32
  Q 226.52 61.34 226.93 61.88
  A 1.18 1.17 35.9 0 1 227.11 62.97
  L 220.83 81.73
  A 1.13 1.11 8.7 0 1 219.78 82.49
  L 178.52 82.55
  Q 176.36 82.56 178.30 81.62
  C 183.41 79.15 186.74 75.50 186.71 69.42
  Q 186.60 48.76 186.63 24.02
  C 186.64 17.99 183.76 15.42 178.60 12.78
  Q 176.51 11.71 178.86 11.68
  Q 189.93 11.54 202.24 11.63
  C 212.96 11.72 220.06 11.56 228.09 6.04
  Q 228.74 5.59 229.52 5.75
  A 0.87 0.86 21.3 0 1 230.09 7.04
  L 221.89 20.78
  A 1.87 1.86 18.3 0 1 220.08 21.69
  Q 209.66 20.56 199.25 20.59
  A 1.17 1.17 0.0 0 0 198.08 21.76
  L 198.10 40.21
  A 0.96 0.92 -66.0 0 0 198.32 40.82
  Z"
/>
<path fill="#ff0000" d="
  M 129.04 45.15
  Q 129.12 58.33 129.09 71.24
  Q 129.08 76.92 130.17 81.97
  A 1.33 1.32 63.5 0 1 129.75 83.24
  Q 122.00 90.05 116.65 99.51
  Q 116.29 100.15 115.60 100.34
  A 0.74 0.73 -0.5 0 1 114.69 99.45
  Q 117.00 90.30 117.00 80.86
  Q 117.01 54.48 117.07 22.98
  C 117.09 17.40 115.85 15.06 110.75 12.72
  A 0.54 0.53 -53.5 0 1 110.62 11.83
  Q 111.03 11.47 111.58 11.50
  Q 118.60 11.89 126.42 11.56
  A 1.58 1.57 75.4 0 1 127.91 12.44
  L 145.87 48.88
  A 0.65 0.63 -13.7 0 0 146.46 49.23
  Q 147.06 49.22 147.06 48.60
  Q 147.00 31.31 146.91 12.73
  Q 146.90 11.45 148.18 11.53
  Q 156.09 12.07 163.51 10.39
  C 163.99 10.28 164.76 10.44 165.20 10.61
  A 0.56 0.55 36.1 0 1 165.35 11.55
  C 161.04 15.09 158.42 16.79 158.45 23.03
  Q 158.56 49.66 158.50 81.80
  A 0.74 0.74 0.0 0 1 157.76 82.54
  L 150.07 82.51
  Q 149.35 82.50 149.03 81.86
  L 130.59 44.78
  Q 129.02 41.62 129.04 45.15
  Z"
/>
<path fill="#ff0000" d="
  M 332.31 70.27
  C 334.17 74.24 339.16 75.33 343.08 73.90
  C 350.60 71.16 350.51 60.51 350.44 53.62
  Q 350.28 37.79 350.42 24.04
  Q 350.47 18.15 346.13 14.23
  C 344.86 13.09 343.14 12.63 341.82 11.71
  Q 339.76 10.28 342.26 10.28
  L 363.00 10.28
  A 0.67 0.66 8.2 0 1 363.64 11.13
  Q 362.33 15.75 362.34 20.33
  Q 362.39 38.17 362.36 56.26
  C 362.34 64.91 360.33 78.16 351.55 82.56
  Q 344.86 85.91 336.78 84.85
  C 324.05 83.18 318.29 72.62 318.10 60.52
  Q 317.83 42.84 318.07 26.88
  C 318.17 20.28 316.10 15.81 310.22 12.84
  Q 310.03 12.74 309.90 12.57
  Q 309.70 12.28 309.86 11.89
  A 0.43 0.43 0.0 0 1 310.26 11.62
  L 330.48 11.63
  A 0.59 0.59 0.0 0 1 331.02 12.46
  Q 330.12 14.42 330.10 16.74
  Q 329.85 40.42 330.27 61.45
  Q 330.36 66.14 332.31 70.27
  Z"
/>
<path fill="#ff0000" d="
  M 408.71 58.56
  Q 408.12 57.16 407.60 58.58
  L 399.33 81.25
  A 1.09 1.09 0.0 0 1 398.10 81.96
  Q 389.99 80.53 381.86 82.02
  A 1.95 0.65 -25.2 0 1 381.65 82.05
  Q 379.79 82.15 379.72 81.18
  Q 379.69 80.66 380.19 80.52
  Q 387.32 78.58 390.21 71.39
  Q 395.22 58.99 400.92 44.75
  A 3.29 3.27 -47.7 0 0 400.80 42.05
  Q 395.80 32.21 390.84 21.51
  C 388.86 17.22 385.86 14.26 381.48 12.79
  Q 379.62 12.16 381.39 10.97
  A 0.81 0.76 -59.9 0 1 381.82 10.84
  L 399.83 10.97
  Q 400.78 10.98 401.11 11.86
  Q 404.44 20.72 407.74 30.21
  Q 407.93 30.77 408.42 31.10
  A 0.51 0.51 0.0 0 0 409.17 30.88
  L 417.53 11.24
  Q 417.89 10.38 418.84 10.40
  Q 427.73 10.59 435.65 10.32
  Q 436.18 10.30 436.63 10.60
  A 0.48 0.48 0.0 0 1 436.57 11.43
  C 431.47 13.92 428.95 16.74 425.89 22.43
  Q 420.66 32.16 415.40 41.82
  A 2.42 2.40 -42.5 0 0 415.30 43.94
  Q 421.39 57.94 426.32 68.81
  Q 429.86 76.62 436.25 80.89
  Q 437.31 81.60 436.04 81.59
  L 419.21 81.48
  A 1.28 1.28 0.0 0 1 418.03 80.70
  L 408.71 58.56
  Z"
/>
<path fill="#ff0000" d="
  M 35.86 71.99
  C 40.66 67.50 40.73 61.12 37.96 55.35
  A 1.12 1.11 -17.2 0 1 38.80 53.77
  Q 39.22 53.70 39.97 54.54
  Q 46.49 61.78 52.99 68.95
  A 1.69 1.69 0.0 0 1 53.31 70.71
  Q 52.39 73.03 50.45 75.19
  Q 39.84 87.02 24.93 82.25
  C 12.93 78.41 8.04 64.83 7.14 52.69
  C 5.96 36.69 9.38 14.06 28.58 10.68
  C 40.02 8.66 48.13 15.03 52.76 24.94
  Q 53.01 25.48 52.55 25.85
  Q 46.89 30.51 40.62 35.16
  Q 39.82 35.75 38.97 36.10
  A 0.47 0.47 0.0 0 1 38.36 35.47
  Q 39.45 32.98 39.91 30.60
  C 40.72 26.42 38.70 21.70 34.30 20.55
  C 29.41 19.28 25.17 23.49 23.31 27.64
  Q 20.97 32.85 20.30 38.70
  C 19.28 47.58 18.83 71.81 30.86 73.71
  Q 33.57 74.14 35.86 71.99
  Z"
/>
<path fill="#ff0000" d="
  M 77.51 21.92
  C 77.51 17.32 75.57 14.98 71.64 12.87
  Q 70.16 12.08 71.79 11.69
  Q 72.26 11.58 72.75 11.59
  Q 81.40 11.79 88.52 11.57
  A 0.97 0.96 89.1 0 1 89.51 12.54
  L 89.52 81.78
  A 0.75 0.74 -89.6 0 1 88.77 82.53
  Q 80.96 82.45 73.36 82.60
  Q 71.98 82.63 70.58 82.36
  Q 69.39 82.13 70.44 81.52
  C 73.92 79.49 77.50 78.73 77.50 73.76
  Q 77.52 47.32 77.51 21.92
  Z"
/>
<path fill="#ff0000" d="
  M 267.84 71.58
  Q 267.82 72.78 269.03 72.76
  Q 274.44 72.64 280.40 72.79
  C 288.13 72.99 291.65 68.14 294.81 61.94
  A 1.07 1.03 -85.7 0 1 295.38 61.43
  Q 296.32 61.07 296.89 61.74
  A 0.85 0.85 0.0 0 1 297.06 62.58
  L 290.68 81.49
  A 1.51 1.50 -80.4 0 1 289.24 82.52
  Q 268.14 82.44 250.50 82.61
  Q 249.01 82.63 247.66 82.42
  Q 246.75 82.28 247.59 81.90
  C 252.63 79.59 256.45 75.79 256.45 69.95
  Q 256.47 46.16 256.48 23.92
  C 256.48 17.94 253.09 15.08 248.26 12.59
  Q 246.42 11.65 248.49 11.65
  L 267.00 11.62
  Q 267.92 11.61 267.93 12.54
  Q 268.18 42.13 267.84 71.58
  Z"
/>
</svg>
